<svg width="17" height="16" viewBox="0 0 17 16" fill="none" xmlns="http://www.w3.org/2000/svg">
<path d="M15.2639 13.2047L14.3185 9.875V2.625C14.3185 2.34844 14.0951 2.125 13.8185 2.125H2.81854C2.54198 2.125 2.31854 2.34844 2.31854 2.625V9.875L1.37323 13.2047C1.25604 13.5312 1.49667 13.875 1.84354 13.875H14.7935C15.1404 13.875 15.381 13.5312 15.2639 13.2047ZM3.44354 3.25H13.1935V9.42188H3.44354V3.25ZM7.01073 12.75L7.13729 12.1719H9.48573L9.61229 12.75H7.01073ZM10.5107 12.75L10.2123 11.3953C10.1998 11.3375 10.1482 11.2969 10.0904 11.2969H6.53417C6.47479 11.2969 6.42479 11.3375 6.41229 11.3953L6.11385 12.75H2.67167L3.3326 10.4219H13.3045L13.9654 12.75H10.5107Z" fill="#262626"/>
</svg>
