<svg width="133" height="43" viewBox="0 0 133 43" fill="none" xmlns="http://www.w3.org/2000/svg">
<g clip-path="url(#clip0)">
<path d="M30.9256 11.4256V0.982956C30.9256 0.447437 30.4867 0.0266724 29.928 0.0266724H21.1092C20.5506 0.0266724 20.1116 0.447437 20.1116 0.982956V9.85727C20.1116 10.2015 20.3112 10.5458 20.6703 10.6988C25.8578 13.1851 30.0876 17.2398 32.6814 22.2125C32.841 22.5185 33.2001 22.748 33.5593 22.748H42.8968C43.4555 22.748 43.8944 22.3272 43.8944 21.7917V13.3381C43.8944 12.8026 43.4555 12.3819 42.8968 12.3819H31.9232C31.3646 12.3819 30.9256 11.9611 30.9256 11.4256Z" fill="#4D4D4F"/>
<path d="M33.7588 33.8026C33.7588 30.0157 32.841 26.0759 31.2049 22.8627C31.2049 22.8627 31.1251 22.7097 31.0453 22.748C31.0453 22.748 30.9256 22.748 30.9256 22.9392V26.1141C30.9256 26.1906 30.9256 26.2671 30.9256 26.3436V29.7097V34.0704C30.9256 34.6059 30.4867 35.0267 29.928 35.0267H21.1092C20.5506 35.0267 20.1116 34.6059 20.1116 34.0704V23.7425C20.1116 23.207 19.6727 22.7862 19.114 22.7862H8.10051C7.54185 22.7862 7.10291 22.3655 7.10291 21.83V13.3381C7.10291 12.8026 7.54185 12.3819 8.10051 12.3819H16.4005H16.4404H19.553C19.7126 12.3819 19.7525 12.2671 19.7525 12.2671C19.7525 12.1524 19.6328 12.1141 19.6328 12.1141C16.2808 10.5458 12.5698 9.66602 8.57936 9.66602C6.46445 9.66602 4.42934 9.93378 2.47405 10.3928C1.39664 10.6606 0.59856 11.4638 0.39904 12.4966C0.279328 13.2234 0.159616 13.9884 0.079808 14.7534C0.039904 15.4802 0 16.207 0 16.9338C0 23.8573 2.91299 30.1305 7.66157 34.6824C12.4101 39.2343 18.9544 42.0267 26.177 42.0267C26.9352 42.0267 27.6934 41.9884 28.4116 41.9119C29.2097 41.8354 30.0078 41.7589 30.766 41.6059C31.8434 41.4147 32.6814 40.6496 32.9607 39.6168C33.4795 37.7808 33.7588 35.7917 33.7588 33.8026Z" fill="#A5A5A8"/>
<path d="M50.7978 4.46379C51.1569 4.00477 51.5959 3.62226 52.1146 3.3545C52.6334 3.08674 53.2319 2.93373 53.9502 2.93373C54.3891 2.93373 54.8281 2.97198 55.1872 3.08674C55.5464 3.20149 55.8257 3.31624 56.0252 3.431L56.3045 3.584L57.0228 2.13045L56.7435 1.9392C56.3843 1.74794 55.9454 1.55668 55.4266 1.44193C54.9079 1.32717 54.2694 1.25067 53.5911 1.25067C52.6334 1.25067 51.7954 1.44193 50.9973 1.78619C50.2391 2.1687 49.5608 2.62772 49.042 3.23974C48.5232 3.85176 48.0843 4.57854 47.805 5.38182C47.5256 6.1851 47.366 7.06488 47.366 7.94466C47.366 8.86269 47.5256 9.74247 47.805 10.5458C48.0843 11.349 48.5232 12.0758 49.0819 12.6878C49.6406 13.2998 50.279 13.7971 51.0771 14.1414C51.8353 14.4856 52.7132 14.6769 53.6709 14.6769C54.3093 14.6769 54.9079 14.6004 55.4665 14.4856C56.0252 14.3326 56.4641 14.1796 56.7834 13.9884L57.0228 13.8354L56.3045 12.3818L56.0252 12.4966C55.7858 12.6113 55.4665 12.7261 55.1473 12.8026C54.8281 12.8791 54.429 12.9173 53.9901 12.9173C53.3516 12.9173 52.7531 12.7643 52.2343 12.4966C51.7156 12.2288 51.2766 11.8463 50.9175 11.4255C50.5583 10.9665 50.279 10.431 50.0795 9.81898C49.88 9.20695 49.8002 8.55668 49.8002 7.90641C49.8002 7.25613 49.88 6.64411 50.0795 6.03209C50.1593 5.45832 50.4386 4.9228 50.7978 4.46379Z" fill="#A5A5A8"/>
<path d="M60.6541 0.0266724H58.4194V14.4092H60.6541V0.0266724Z" fill="#A5A5A8"/>
<path d="M65.0435 4.15778H62.8089V14.4091H65.0435V4.15778Z" fill="#A5A5A8"/>
<path d="M66.5998 0.103155C66.2805 -0.0115987 65.8416 -0.0115987 65.4027 0.103155C65.2031 0.141407 64.9637 0.256161 64.8041 0.370915L64.7642 0.409166L62.8089 3.27802H64.4051L67.1584 0.715177L67.0387 0.485669C66.9589 0.332664 66.8392 0.179658 66.5998 0.103155Z" fill="#A5A5A8"/>
<path d="M74.8199 4.61681C74.381 4.3873 73.8622 4.19604 73.3036 4.08129C72.7449 3.96654 72.1464 3.92828 71.5079 3.92828C70.7098 3.92828 69.9118 4.00479 69.1935 4.11954C68.4752 4.23429 67.8368 4.42555 67.3579 4.61681L67.1584 4.69331V14.4474H69.393V5.7261C69.5925 5.6496 69.8319 5.61134 70.1113 5.53484C70.8295 5.42009 71.6276 5.38184 72.3459 5.53484C72.6651 5.61134 72.9445 5.68785 73.2238 5.84085C73.4632 5.99386 73.6627 6.14686 73.8223 6.37637C73.982 6.56763 74.0219 6.83539 74.0219 7.1414V14.4474H76.2166V7.0649C76.2166 6.49113 76.0969 5.99386 75.8175 5.57309C75.618 5.19058 75.2589 4.84632 74.8199 4.61681Z" fill="#A5A5A8"/>
<path d="M85.634 6.52936C85.8734 6.22335 86.1926 5.95559 86.5917 5.76433C86.9508 5.57307 87.4296 5.49657 87.9085 5.49657C88.3075 5.49657 88.6667 5.53482 88.946 5.64958C89.2652 5.76433 89.4647 5.84083 89.6244 5.95559L89.9037 6.14685L90.582 4.7698L90.3825 4.61679C90.1032 4.42553 89.7441 4.27253 89.3051 4.11952C88.8263 3.96652 88.2277 3.89001 87.5493 3.89001C86.8311 3.89001 86.1926 4.00477 85.5941 4.27253C84.9955 4.50204 84.4368 4.88455 83.9979 5.34357C83.559 5.80258 83.1998 6.37635 82.9604 7.02663C82.721 7.6769 82.6013 8.44193 82.6013 9.24521C82.6013 10.0485 82.721 10.8135 82.9604 11.4638C83.1998 12.1141 83.559 12.6878 83.9979 13.1468C84.4368 13.6059 84.9556 13.9884 85.5541 14.2179C86.1527 14.4856 86.7912 14.6004 87.5094 14.6004C88.2277 14.6004 88.8263 14.5239 89.3051 14.3709C89.784 14.2179 90.183 14.0649 90.4224 13.8736L90.582 13.7971L89.9037 12.3436L89.6244 12.5348C89.4248 12.6496 89.1455 12.7643 88.8662 12.8791C88.5868 12.9938 88.2277 13.0321 87.8287 13.0321C87.3897 13.0321 86.9508 12.9556 86.5917 12.7643C86.2325 12.5731 85.9133 12.3436 85.634 11.9993C85.3546 11.655 85.1551 11.2725 84.9955 10.8135C84.8359 10.3545 84.7561 9.81898 84.7561 9.24521C84.7561 8.70969 84.8359 8.17417 84.9556 7.71515C85.1551 7.25613 85.3546 6.83537 85.634 6.52936Z" fill="#A5A5A8"/>
<path d="M100.039 5.76437C99.7999 5.30535 99.4806 4.96109 99.0816 4.69333C98.6825 4.42557 98.2037 4.23431 97.6849 4.11956C97.1662 4.0048 96.6075 3.96655 96.0489 3.96655C95.2907 3.96655 94.5724 4.04306 93.8941 4.19606C93.2556 4.34907 92.7369 4.50207 92.3777 4.65508L92.0984 4.76983L92.7768 6.18513L93.0561 6.07038C93.3753 5.95562 93.7744 5.80262 94.2931 5.68786C95.2109 5.49661 96.1287 5.49661 96.8869 5.61136C97.2061 5.68786 97.4455 5.76437 97.6849 5.91737C97.8845 6.07038 98.0441 6.22338 98.1638 6.45289C98.2835 6.6824 98.3633 6.95016 98.3633 7.29442V7.63868C97.5253 7.71519 96.7273 7.82994 95.9691 7.9447C95.1311 8.0977 94.3729 8.32721 93.7345 8.59497C93.0561 8.90098 92.5373 9.28349 92.1383 9.74251C91.7393 10.2398 91.5397 10.8518 91.5397 11.5786C91.5397 12.5349 91.9388 13.2999 92.7369 13.8737C93.495 14.4474 94.6522 14.7152 96.2883 14.7152C97.1263 14.7152 97.8845 14.6387 98.5628 14.5239C99.2412 14.4092 99.8398 14.2179 100.319 14.0267L100.478 13.9502V7.37092C100.398 6.72065 100.279 6.18513 100.039 5.76437ZM98.2835 8.90098V12.9174C98.084 12.9939 97.8446 13.0704 97.5652 13.1086C97.2061 13.1851 96.8071 13.2234 96.3681 13.2234C95.4902 13.2234 94.8119 13.0704 94.333 12.7644C93.8941 12.4966 93.6546 12.0758 93.6546 11.4638C93.6546 11.0048 93.7744 10.6223 93.9739 10.3545C94.1734 10.0485 94.4926 9.81901 94.9316 9.62776C95.3705 9.4365 95.8893 9.28349 96.5277 9.16874C97.0465 9.05398 97.645 8.97748 98.2835 8.90098Z" fill="#A5A5A8"/>
<path d="M80.646 4.15778H78.4113V14.4091H80.646V4.15778Z" fill="#A5A5A8"/>
<path d="M79.5287 0.944702C79.2094 0.944702 78.8902 1.05946 78.6907 1.28896C78.4513 1.51847 78.3315 1.78623 78.3315 2.13049C78.3315 2.43651 78.4513 2.74252 78.6907 2.97202C78.9301 3.20153 79.2094 3.31629 79.5287 3.31629C79.8479 3.31629 80.1671 3.20153 80.3666 2.97202C80.6061 2.74252 80.7258 2.47476 80.7258 2.13049C80.7258 1.82448 80.6061 1.51847 80.3666 1.28896C80.1671 1.05946 79.8479 0.944702 79.5287 0.944702Z" fill="#A5A5A8"/>
<path d="M54.7882 24.2015C54.3093 23.9338 53.7507 23.7043 53.192 23.513C52.6334 23.36 52.1545 23.1687 51.6757 22.9775C51.2367 22.7862 50.8776 22.5567 50.5983 22.289C50.3589 22.0594 50.1992 21.7534 50.1992 21.3327C50.1992 20.7206 50.4387 20.2616 50.8776 19.8791C51.3564 19.4966 51.9949 19.3053 52.793 19.3053C53.2718 19.3053 53.7507 19.3819 54.1896 19.4966C54.6286 19.6114 54.9478 19.7261 55.1872 19.8791L55.4666 20.0321L56.1848 18.5403L55.9454 18.4256C55.6262 18.2343 55.1473 18.0813 54.5887 17.9283C53.9901 17.7753 53.3117 17.6988 52.5935 17.6988C51.8752 17.6988 51.2367 17.8135 50.6382 18.0048C50.0396 18.1961 49.5608 18.4638 49.1617 18.8081C48.7627 19.1523 48.4036 19.5731 48.204 19.9939C47.9646 20.4529 47.8449 20.9502 47.8449 21.4474C47.8449 22.1742 48.0045 22.748 48.3637 23.207C48.6829 23.6278 49.1218 23.972 49.6406 24.2398C50.1194 24.5075 50.6382 24.737 51.2367 24.89C51.7555 25.0431 52.2742 25.2343 52.7132 25.4638C53.1521 25.6551 53.5113 25.8846 53.7906 26.1523C54.03 26.3819 54.1497 26.7261 54.1497 27.1851C54.1497 27.4911 54.0699 27.7972 53.9502 28.0649C53.7906 28.3327 53.5911 28.5622 53.3516 28.7534C53.0723 28.9447 52.7531 29.0977 52.394 29.2125C52.0348 29.3272 51.5959 29.3655 51.1968 29.3655C50.6382 29.3655 50.1194 29.289 49.6406 29.1742C49.1617 29.0594 48.7627 28.9064 48.4834 28.7917L48.204 28.6387L47.4459 30.2452L47.6853 30.36C48.0843 30.5513 48.6031 30.7043 49.2415 30.8573C49.88 31.0103 50.6382 31.0485 51.4363 31.0485C52.1545 31.0485 52.8329 30.9338 53.4315 30.7425C54.03 30.5513 54.5887 30.2835 55.0276 29.9392C55.4666 29.595 55.8257 29.1742 56.105 28.6769C56.3844 28.1797 56.5041 27.6441 56.5041 27.0704C56.5041 26.3436 56.3444 25.7316 55.9853 25.2726C55.706 24.8518 55.3069 24.4693 54.7882 24.2015Z" fill="#4D4D4F"/>
<path d="M65.4026 21.1031C65.0036 20.8354 64.5247 20.6441 64.006 20.5293C63.4872 20.4146 62.9286 20.3763 62.3699 20.3763C61.6118 20.3763 60.8935 20.4528 60.2151 20.6059C59.5766 20.7589 59.0579 20.9119 58.6988 21.0649L58.4194 21.1796L59.0978 22.5949L59.3771 22.4802C59.6964 22.3654 60.0954 22.2124 60.6141 22.0977C61.5319 21.9064 62.4497 21.9064 63.2079 22.0212C63.5271 22.0977 63.7666 22.1742 64.006 22.3272C64.2055 22.4802 64.3651 22.6332 64.4848 22.8627C64.6046 23.0922 64.6844 23.3599 64.6844 23.7042V24.0485C63.8464 24.125 63.0483 24.2397 62.2901 24.3545C61.4521 24.5075 60.694 24.737 60.0555 25.0048C59.3771 25.3108 58.8584 25.6933 58.4593 26.1523C58.0603 26.6496 57.8608 27.2616 57.8608 27.9884C57.8608 28.9446 58.2598 29.7097 59.0579 30.2834C59.8161 30.8572 60.9733 31.125 62.6093 31.125C63.4473 31.125 64.2055 31.0485 64.8839 30.9337C65.5622 30.819 66.1608 30.6277 66.6397 30.4365L66.7993 30.3599V23.819C66.7993 23.2069 66.6796 22.6332 66.4401 22.2124C66.1608 21.7534 65.8416 21.3709 65.4026 21.1031ZM64.6045 25.349V29.3654C64.405 29.4419 64.1656 29.5184 63.8863 29.5567C63.5271 29.6332 63.1281 29.6714 62.6892 29.6714C61.8113 29.6714 61.1329 29.5184 60.6541 29.2124C60.2151 28.9446 59.9757 28.5239 59.9757 27.9119C59.9757 27.4528 60.0954 27.0703 60.2949 26.8026C60.4944 26.4966 60.8137 26.2671 61.2526 26.0758C61.6916 25.8845 62.2103 25.7315 62.8488 25.6168C63.3675 25.502 63.9661 25.4255 64.6045 25.349Z" fill="#4D4D4F"/>
<path d="M76.5358 21.0267C76.0969 20.7972 75.5781 20.6059 75.0195 20.4911C74.4608 20.3764 73.8623 20.3381 73.2238 20.3381C72.4257 20.3381 71.6276 20.4146 70.9094 20.5294C70.1911 20.6441 69.5526 20.8354 69.0738 21.0267L68.8743 21.1032V30.8573H71.1089V22.1359C71.3084 22.0594 71.5478 22.0212 71.8272 21.9447C72.5454 21.8299 73.3435 21.7917 74.0618 21.9447C74.381 22.0212 74.6604 22.0977 74.9397 22.2507C75.1791 22.4037 75.3786 22.5567 75.5382 22.7862C75.6979 22.9775 75.7378 23.2452 75.7378 23.5512V30.8573H77.9325V23.513C77.9325 22.9392 77.8128 22.442 77.5334 22.0212C77.3339 21.6387 76.9748 21.2944 76.5358 21.0267Z" fill="#4D4D4F"/>
<path d="M83.2797 30.8573H85.5941V24.3163H90.4225V22.748H85.5941V18.5786H91.1008V17.0485H83.2797V30.8573Z" fill="#4D4D4F"/>
<path d="M97.0066 20.3763C96.2884 20.3763 95.61 20.4911 94.9715 20.7206C94.3331 20.9501 93.8143 21.2944 93.3355 21.7534C92.8965 22.2124 92.5374 22.7862 92.2581 23.4365C92.0186 24.0867 91.8989 24.8518 91.8989 25.7315C91.8989 26.6496 92.0186 27.4528 92.298 28.1031C92.5773 28.7916 92.9763 29.3654 93.4552 29.7862C93.934 30.2452 94.5725 30.5512 95.2509 30.7807C95.9292 31.0102 96.6874 31.0867 97.4855 31.0867C98.2836 31.0867 99.0417 31.0102 99.6802 30.8572C100.319 30.7042 100.837 30.5512 101.197 30.36L101.476 30.2452L100.758 28.7151L100.478 28.8681C100.199 29.0212 99.7999 29.1359 99.3211 29.2507C98.8422 29.3654 98.2836 29.4419 97.6451 29.4419C96.6076 29.4419 95.7696 29.1742 95.1311 28.6769C94.5725 28.2179 94.2134 27.4911 94.0936 26.5731L101.795 25.655V25.3873C101.795 23.7042 101.356 22.4419 100.518 21.6004C99.6403 20.7971 98.4831 20.3763 97.0066 20.3763ZM99.6004 24.5075L93.9739 25.196C94.0138 24.6987 94.0936 24.2397 94.2134 23.8572C94.373 23.3982 94.5725 23.0157 94.8518 22.7479C95.1311 22.4419 95.4504 22.2507 95.7696 22.0977C96.1287 21.9446 96.5278 21.8681 96.9268 21.8681C97.3259 21.8681 97.685 21.9064 98.0441 22.0212C98.3634 22.1359 98.6427 22.2889 98.8821 22.5184C99.1215 22.7479 99.2812 23.0539 99.4408 23.3982C99.5206 23.7042 99.6004 24.0867 99.6004 24.5075Z" fill="#4D4D4F"/>
<path d="M128.212 20.3763C127.493 20.3763 126.815 20.4911 126.176 20.7206C125.538 20.9501 125.019 21.2944 124.54 21.7534C124.101 22.2124 123.742 22.7862 123.463 23.4365C123.224 24.0867 123.104 24.8518 123.104 25.7315C123.104 26.6496 123.224 27.4528 123.503 28.1031C123.782 28.7916 124.181 29.3654 124.66 29.7862C125.139 30.2452 125.777 30.5512 126.456 30.7807C127.134 31.0102 127.892 31.0867 128.69 31.0867C129.488 31.0867 130.247 31.0102 130.885 30.8572C131.524 30.7042 132.042 30.5512 132.401 30.36L132.681 30.2452L131.963 28.7151L131.683 28.8681C131.404 29.0212 131.005 29.1359 130.526 29.2507C130.047 29.3654 129.488 29.4419 128.85 29.4419C127.812 29.4419 126.975 29.1742 126.336 28.6769C125.777 28.2179 125.418 27.4911 125.299 26.5731L133 25.655V25.3873C133 23.7042 132.561 22.4419 131.723 21.6004C130.845 20.7971 129.688 20.3763 128.212 20.3763ZM130.805 24.5075L125.179 25.196C125.219 24.6987 125.299 24.2397 125.418 23.8572C125.578 23.3982 125.777 23.0157 126.057 22.7479C126.336 22.4419 126.655 22.2507 126.975 22.0977C127.334 21.9446 127.733 21.8681 128.132 21.8681C128.531 21.8681 128.89 21.9064 129.249 22.0212C129.568 22.1359 129.848 22.2889 130.087 22.5184C130.326 22.7479 130.486 23.0539 130.646 23.3982C130.725 23.7042 130.805 24.0867 130.805 24.5075Z" fill="#4D4D4F"/>
<path d="M105.865 16.4747H103.631V30.8572H105.865V16.4747Z" fill="#4D4D4F"/>
<path d="M110.255 20.6059H108.02V30.8573H110.255V20.6059Z" fill="#4D4D4F"/>
<path d="M109.137 17.3545C108.818 17.3545 108.499 17.4692 108.299 17.6988C108.06 17.9283 107.94 18.196 107.94 18.5403C107.94 18.8463 108.06 19.1523 108.299 19.3818C108.539 19.6113 108.818 19.7261 109.137 19.7261C109.457 19.7261 109.776 19.6113 109.975 19.3818C110.215 19.1523 110.335 18.8845 110.335 18.5403C110.335 18.2343 110.215 17.9283 109.975 17.6988C109.776 17.4692 109.497 17.3545 109.137 17.3545Z" fill="#4D4D4F"/>
<path d="M120.47 21.7917C119.991 21.3327 119.393 20.9884 118.714 20.7206C118.036 20.4911 117.238 20.3381 116.36 20.3381C115.522 20.3381 114.804 20.4146 114.165 20.5294C113.527 20.6824 113.008 20.8354 112.609 21.0267L112.449 21.1032V34.9884H114.644V30.9338C114.804 30.972 115.003 31.0103 115.243 31.0103C115.642 31.0485 116.041 31.0868 116.4 31.0868C117.238 31.0868 117.996 30.972 118.674 30.7043C119.353 30.4365 119.951 30.0922 120.43 29.595C120.909 29.0977 121.308 28.5239 121.548 27.8354C121.827 27.1469 121.947 26.3818 121.947 25.5403C121.947 24.7753 121.827 24.0485 121.587 23.4365C121.308 22.7862 120.949 22.2507 120.47 21.7917ZM119.672 25.6551C119.672 26.8791 119.353 27.8737 118.714 28.5622C118.076 29.2507 117.198 29.595 116.041 29.595C115.761 29.595 115.442 29.5567 115.163 29.5185C114.963 29.4802 114.804 29.4802 114.684 29.442V22.0977C114.844 22.0212 115.043 21.9829 115.243 21.9447C115.562 21.8682 115.921 21.8299 116.32 21.8299C116.959 21.8299 117.477 21.9064 117.916 22.0977C118.355 22.2507 118.674 22.5185 118.954 22.8245C119.233 23.1305 119.433 23.5512 119.552 24.0103C119.592 24.5075 119.672 25.0431 119.672 25.6551Z" fill="#4D4D4F"/>
</g>
<defs>
<clipPath id="clip0">
<rect width="133" height="42" fill="white" transform="translate(0 0.0266724)"/>
</clipPath>
</defs>
</svg>
