<svg width="40" height="40" viewBox="0 0 40 40" fill="none" xmlns="http://www.w3.org/2000/svg">
<path d="M28.1818 10.8561V0.910747C28.1818 0.400729 27.7818 0 27.2727 0H19.2364C18.7273 0 18.3273 0.400729 18.3273 0.910747V9.36248C18.3273 9.69035 18.5091 10.0182 18.8364 10.1639C23.5636 12.5319 27.4182 16.3934 29.7818 21.1293C29.9273 21.4208 30.2545 21.6393 30.5818 21.6393H39.0909C39.6 21.6393 40 21.2386 40 20.7286V12.6776C40 12.1676 39.6 11.7668 39.0909 11.7668H29.0909C28.5818 11.7668 28.1818 11.3661 28.1818 10.8561Z" fill="#A5A5A8"/>
<path d="M30.7636 32.1675C30.7636 28.561 29.9273 24.8087 28.4364 21.7486C28.4364 21.7486 28.3636 21.6029 28.2909 21.6393C28.2909 21.6393 28.1818 21.6393 28.1818 21.8215V24.8451C28.1818 24.918 28.1818 24.9909 28.1818 25.0637V28.2696V32.4226C28.1818 32.9326 27.7818 33.3333 27.2727 33.3333H19.2364C18.7273 33.3333 18.3273 32.9326 18.3273 32.4226V22.5865C18.3273 22.0765 17.9273 21.6757 17.4182 21.6757H7.38182C6.87273 21.6757 6.47273 21.275 6.47273 20.765V12.6776C6.47273 12.1675 6.87273 11.7668 7.38182 11.7668H14.9455H14.9818H17.8182C17.9636 11.7668 18 11.6575 18 11.6575C18 11.5482 17.8909 11.5118 17.8909 11.5118C14.8364 10.0182 11.4545 9.1803 7.81818 9.1803C5.89091 9.1803 4.03636 9.43531 2.25455 9.87247C1.27273 10.1275 0.545455 10.8925 0.363636 11.8761C0.254545 12.5683 0.145455 13.2969 0.0727273 14.0255C0.0363636 14.7176 0 15.4098 0 16.102C0 22.6958 2.65455 28.6703 6.98182 33.0054C11.3091 37.3406 17.2727 40 23.8545 40C24.5455 40 25.2364 39.9635 25.8909 39.8907C26.6182 39.8178 27.3455 39.745 28.0364 39.5992C29.0182 39.4171 29.7818 38.6885 30.0364 37.7049C30.5091 35.9563 30.7636 34.0619 30.7636 32.1675Z" fill="#A5A5A8"/>
</svg>
