<svg width="16" height="16" viewBox="0 0 16 16" fill="none" xmlns="http://www.w3.org/2000/svg">
<path d="M8.00012 4C9.10461 4 10.0001 3.10456 10.0001 2C10.0001 0.895437 9.10461 0 8.00012 0C6.89563 0 6.00012 0.895437 6.00012 2C6.00012 3.10456 6.89563 4 8.00012 4Z" fill="#91989C"/>
<path d="M10.0001 7.98438C10.0001 9.08894 9.10461 9.98438 8.00012 9.98438C6.89563 9.98438 6.00012 9.08894 6.00012 7.98438C6.00012 6.87981 6.89563 5.98438 8.00012 5.98438C9.10461 5.98438 10.0001 6.87981 10.0001 7.98438Z" fill="#91989C"/>
<path d="M10.0001 14C10.0001 15.1046 9.10461 16 8.00012 16C6.89563 16 6.00012 15.1046 6.00012 14C6.00012 12.8954 6.89563 12 8.00012 12C9.10461 12 10.0001 12.8954 10.0001 14Z" fill="#91989C"/>
</svg>
